<svg id="Layer_1" data-name="Layer 1" xmlns="http://www.w3.org/2000/svg" viewBox="0 0 399.97 400"><defs><style>.cls-1{fill:#f2a08b;}.cls-2{fill:#ead0d5;}.cls-3{fill:#111236;}.cls-4{fill:#084eb2;}.cls-5{fill:#0331a4;}.cls-6{fill:#0770e3;}.cls-7{fill:#0d3074;}.cls-8{fill:#7d7185;}.cls-9{fill:#0c418c;}.cls-10{fill:#fff;}.cls-11{fill:#ffb54d;}</style></defs><title>SDCRT-1169_HelpHome</title><path class="cls-1" d="M203.2,32.86A157.17,157.17,0,1,1,42.84,186.78,157.18,157.18,0,0,1,203.2,32.86"/><path class="cls-2" d="M100.74,312.37A157.17,157.17,0,1,1,298.62,68.12L100.74,312.37"/><path class="cls-3" d="M178.1,73.23c-.95,8.13-8,14-15.77,13.07S149.05,78.06,150,69.93s8-14,15.78-13.06,13.27,8.24,12.31,16.36"/><path class="cls-4" d="M265.76,124.45,250.27,98.19,209.86,71.92,184.6,66.53l-21,3c-5,2.5-8.74,2.21-14.06,3.42L125.67,90.1l-14.82,75.44,6.73,70.72,33.68-1.35s39.06-8.76,57.92-27.61c0,0,31.66-23.58,65.33-27.62l6.07-18.18-14.82-37"/><path class="cls-4" d="M183.92,66.53S268.07,79.33,275.35,173l1.12,7.41,26.33-2.7S302.69,44.3,183.92,66.53"/><path class="cls-5" d="M209.28,64a138,138,0,0,0-25.36,2.5S268.07,79.33,275.35,173l1.12,7.41,26.33-2.7S302.69,64,209.28,64"/><path class="cls-4" d="M273.91,176.5l-1.12-7.41c-3.73-47.94-27.92-72.73-47.55-85.1a107.73,107.73,0,0,0-42.11-15.56l.24-2.45a110.7,110.7,0,0,1,43.18,15.93c20.11,12.67,44.88,38,48.68,86.9l1.11,7.32Z"/><path class="cls-6" d="M156.65,73.94S44,57.39,70.52,240.3l1.8,4.76s33.13-1.47,54.81-7.93c0,0-22.28-124.43,29.52-163.19"/><path class="cls-7" d="M152.87,72.73l-1,.86,1.78.08-.78-.94"/><path class="cls-8" d="M127.41,235.86l-.49,0c.14.82.21,1.25.21,1.25l-.22.06.62-.06c0-.07,0-.5-.12-1.27"/><path class="cls-7" d="M147.2,82.83c-7.51,8.75-12.89,19.75-16.67,31.84q-5.62,22-7.18,53.44c-.48,9.77-.6,19.29-.52,28a373.08,373.08,0,0,0,4.09,39.8l.49,0c-1.11-12.5-9-113.63,19.79-153"/><path class="cls-9" d="M122.83,196.08c.23,23.59,2,41.09,2,41.33l2.09-.22.22-.06s-.07-.43-.21-1.25a373.08,373.08,0,0,1-4.09-39.8m29-122.49c-9.35,8.27-16.48,22-21.34,41.08,3.78-12.09,9.16-23.09,16.67-31.84a44.09,44.09,0,0,1,7.41-8l-1-1.16-1.78-.08"/><path class="cls-4" d="M382.28,223.46s21.56,8.74,14.14,28.29c-14.82,39.06-57.92-22.23-80.45-.84l9.06-26.1Z"/><path class="cls-6" d="M306.51,177c-4.35-2.72-25.06-1.68-30-.61a169.88,169.88,0,0,0-23.28,6.89c-13.06,4.89-25.12,11.54-37,18.86-26.31,16.26-53.4,35.28-85.91,32.78-7-.53-15,.3-23.08,1.82l.3,2.23c18.79,1.64,44.33,25.92,44.33,25.92l59.95,38.39c35.69,17.52,74.29-24.07,74.29-24.07,66.47-71.23,100.15-53.72,100.15-53.72Z"/><path class="cls-10" d="M230.69,311a45.55,45.55,0,0,1-20.3-4.7l-.24-.13-56.07-33.45-41.75-28.28,3.77-5.58,41.68,28.23,55.7,33.22c33,16,69.85-23,70.22-23.41,67.37-72.18,106.23-55.39,107.85-54.64l-2.8,6.12c-.09,0-9-3.85-25.63.64-15.56,4.21-41.13,16.72-74.49,52.47C287.29,282.94,260.83,311,230.69,311Z"/><path class="cls-4" d="M229.68,298.06a43,43,0,0,1-9.72-1.87l.81-2.6a40.51,40.51,0,0,0,9.1,1.75Zm9.89-.48-.46-2.69a43,43,0,0,0,8.93-2.56l1,2.52A45.74,45.74,0,0,1,239.57,297.58Zm-28.65-5.52-8-5.26,1.5-2.28,8,5.26Zm46.88-1.74-1.46-2.3a64.65,64.65,0,0,0,7.53-5.63l1.78,2.06A67,67,0,0,1,257.8,290.32Zm-63-8.77-8-5.26L188.3,274l8,5.26Zm77.78-4-2-1.81a51.1,51.1,0,0,0,3.68-4.54l.13-.15,2.49-2.64,2,1.88-2.41,2.55A57,57,0,0,1,272.63,277.58ZM178.77,271l-8-5.26,1.49-2.28,8,5.26Zm106.77-7.55-1.92-1.93c2.32-2.31,4.65-4.56,6.94-6.7l1.86,2C290.15,259,287.84,261.19,285.54,263.48Zm-122.84-3-8-5.26,1.49-2.28,8,5.26Zm136.8-10.08-1.79-2.05c2.47-2.16,5-4.24,7.41-6.2l1.7,2.12C304.41,246.24,302,248.3,299.5,250.43ZM146.63,250l-8-5.25,1.49-2.28,8,5.25Zm167.76-11.48-1.6-2.2c2.68-1.95,5.36-3.79,8-5.48l1.48,2.29C319.67,234.78,317,236.59,314.39,238.51Zm16-10.26-1.31-2.39c2.93-1.61,5.86-3.06,8.7-4.32l1.1,2.49C336.12,225.25,333.27,226.68,330.4,228.25Zm17.31-7.59-.82-2.6a67,67,0,0,1,9.51-2.32l.44,2.69A65,65,0,0,0,347.71,220.66Zm27.21-1.15s-3-1.5-8.8-1.72l.11-2.72c6.47.25,9.8,2,9.94,2l-1.25,2.42.62-1.21Z"/><path class="cls-4" d="M71.78,246.36a1.35,1.35,0,0,1-.1-2.69l.5,0c30.34-2.36,61.72-4.8,124.83-34.28,4.58-2.14,11.6-5.76,19-9.6,13.29-6.85,28.35-14.61,36.72-17.74a169.3,169.3,0,0,1,23.47-6.94c4.27-.93,24-3.21,31.13-.22a1.35,1.35,0,1,1-1.05,2.48c-6-2.53-24.68-.68-29.51.37a167.12,167.12,0,0,0-23.1,6.83c-8.21,3.08-23.2,10.8-36.42,17.62-7.47,3.84-14.51,7.48-19.14,9.64C134.6,241.48,103,243.94,72.39,246.32l-.5,0Z"/><path class="cls-11" d="M211.8,133.71c-.88-3.46-1.71-6.93-2.65-10.36-.39-1.42-.08-2.16,1.41-2.47,1.83-.38,3.64-.87,5.45-1.37,1.23-.35,1.92,0,2.25,1.27,1.72,6.92,3.52,13.81,5.22,20.73.74,3-.63,5.47-3.26,6.16s-5.09-.91-5.88-4C213.47,140.38,212.64,137,211.8,133.71Z"/><path class="cls-11" d="M199.33,165.49a4.6,4.6,0,0,1-5.88,5.61c-5.37-1.43-10.7-3-16-4.5-1.63-.46-3.24-1-4.88-1.37-1.19-.29-1.62-.91-1.27-2.09q.86-3,1.67-5.93a1.33,1.33,0,0,1,1.9-1.06c7.2,2,14.41,4,21.6,6.14A4.19,4.19,0,0,1,199.33,165.49Z"/><path class="cls-11" d="M247.11,153.71a4.49,4.49,0,0,1,1.19-4.8c5.17-5.06,10.38-10.1,15.55-15.17.91-.89,1.68-1,2.6,0,1.35,1.46,2.75,2.88,4.15,4.29a1.39,1.39,0,0,1,0,2.3c-5.3,5.12-10.52,10.32-15.86,15.38A4.52,4.52,0,0,1,247.11,153.71Z"/><path class="cls-11" d="M208.44,150.51a4.93,4.93,0,0,1-2.33,5.21,4.62,4.62,0,0,1-5.67-.81c-2.69-2.68-5.31-5.44-8-8.16-2.35-2.43-4.67-4.88-7.09-7.25-1.09-1.07-1.25-1.9,0-3,1.41-1.23,2.7-2.59,4-3.89a1.5,1.5,0,0,1,2.47,0c5,5.21,10.09,10.38,15.11,15.6A14.24,14.24,0,0,1,208.44,150.51Z"/><path class="cls-11" d="M238.12,147.76c-4,1.06-7.06-2.07-6.07-5.77,1.36-5.14,2.87-10.23,4.31-15.34.52-1.86,1.09-3.71,1.56-5.58.3-1.19.93-1.63,2.1-1.3,2,.56,3.94,1.14,5.92,1.68,1.16.31,1.35,1,1,2.06-2,7-4,14-6,21.08A4.43,4.43,0,0,1,238.12,147.76Z"/></svg>