<svg id="Layer_1" data-name="Layer 1" xmlns="http://www.w3.org/2000/svg" xmlns:xlink="http://www.w3.org/1999/xlink" viewBox="0 0 399.97 400"><defs><style>.cls-1{fill:none;}.cls-2{clip-path:url(#clip-path);}.cls-3{fill:#bed5f6;}.cls-4{fill:#6d9feb;}.cls-5{fill:#444560;}.cls-6{fill:#111236;}.cls-7{fill:#68697f;}.cls-8{fill:#8f90a0;}.cls-9{fill:#f1f2f8;}.cls-10{fill:#cddff8;}.cls-11{fill:#7ca9ed;}.cls-12{fill:#fff;}.cls-13{fill:#dddde5;}.cls-14{fill:#d1435b;}.cls-15{fill:#240c1b;}.cls-16{fill:#262745;}.cls-17{fill:#2c2d4d;}.cls-18{fill:#ffb54d;}.cls-19{fill:#e18b96;}.cls-20{fill:#ffe7e0;}.cls-21{fill:#b2b2bf;}.cls-22{fill:#9d6170;}.cls-23{fill:#b27e3a;}.cls-24{fill:#0c0d28;}.cls-25{fill:#b2a1a8;}</style><clipPath id="clip-path"><path class="cls-1" d="M362.81,198.42a158.68,158.68,0,1,1-317.35,0c0-87.64,71-246.64,158.68-246.64s158.67,159,158.67,246.64"/></clipPath></defs><title>SDCRT-1169_HelpHome</title><g class="cls-2"><path class="cls-3" d="M42.18,194.34A157.91,157.91,0,1,1,194.33,357.81,157.91,157.91,0,0,1,42.18,194.34"/><path class="cls-4" d="M78.84,98.16C22.9,165.07,30.74,266,98.71,320.59c60.28,48.46,153.1,52.41,215-11.54l-18.27-10.6L78.84,98.16"/><polygon class="cls-5" points="88.98 54.15 88.81 54.08 53.26 304.26 117.47 304.26 88.98 54.15"/><path class="cls-6" d="M98.55,56.11a2.28,2.28,0,0,1-.6-.41L62.23,304.26h64.21Z"/><polyline class="cls-7" points="88.81 54.07 112.26 304.28 295.96 304.28 267.76 51.47 88.81 54.07"/><polyline class="cls-8" points="94.89 54.07 118.34 304.28 302.04 304.28 273.84 51.47 94.89 54.07"/><polyline class="cls-7" points="104.58 53.88 126.68 287.68 149.46 303.87 303.28 303.3 268.55 51.47 104.58 53.88"/><polyline class="cls-9" points="105.48 46.87 127.58 283.85 305.95 283.85 276.2 44.46 105.48 46.87"/><path class="cls-10" d="M300.8,241.59c-5.66-3.34-11.62-10.48-12.49-25.74L273,50.14,116.07,55.49l15.68,173.26s2.88,44.65,28.51,47.87l-.18.16,1.54,0a25.47,25.47,0,0,0,3.89-.06L301,274.91c1.22,0,2.4-.07,3.55-.13l-3.77-33.19"/><path class="cls-11" d="M201.3,237.52l138.57-4.79s1.29,29.63-40.35,30.23l-139.8,1.81,30.95-26.12Z"/><path class="cls-12" d="M131.62,218.39s4.62,69.84,54.48,38.19c0,0,14.6-10.79,17.63-19.12L310,233.79s-21.38,1.2-23.07-27.87l-15.2-160L116.07,51.06l15.55,167.33"/><path class="cls-13" d="M182.2,234.14C162.56,224,162.33,130.66,162.33,126.69h2.78c0,26.55,3.3,97.17,18.37,105l-1.28,2.47"/><path class="cls-13" d="M219.26,229.49c-7.21-9.53-12.06-29.64-14.43-59.78-1.76-22.31-1.43-42.14-1.42-42.34l2.77,0c0,.78-1.21,78.57,15.3,100.4l-2.22,1.67"/><path class="cls-13" d="M260.33,226.66c-7.21-9.54-11.71-29.19-13.37-58.4-1.23-21.62-.37-40.74-.36-40.93l2.78.13c0,.76-3.33,75.71,13.17,97.53l-2.22,1.67"/><polyline class="cls-13" points="145.35 158.53 145.27 155.75 271.32 152.21 271.39 154.98 145.35 158.53"/><polyline class="cls-13" points="147.5 192.51 147.37 189.74 268.46 184.07 268.59 186.85 147.5 192.51"/><rect class="cls-13" x="156.51" y="217.71" width="117.1" height="2.78" transform="translate(-14.09 14.78) rotate(-3.81)"/></g><polygon class="cls-14" points="116.07 51.47 273.56 45.89 277.73 110.4 121.83 117.01 116.07 51.47"/><path class="cls-5" d="M147.26,72a6.73,6.73,0,1,1-6.83-6.63A6.73,6.73,0,0,1,147.26,72Z"/><path class="cls-5" d="M196.09,71.21a6.73,6.73,0,1,1-6.83-6.63A6.73,6.73,0,0,1,196.09,71.21Z"/><path class="cls-5" d="M244.79,69.52A6.73,6.73,0,1,1,238,62.89,6.74,6.74,0,0,1,244.79,69.52Z"/><path class="cls-8" d="M145.91,25.49c-10.22.15-18.63,9.25-20.39,21.15l8.44-.09c1.48-7.28,6.3-12.66,12.08-12.75,7.07-.11,12.94,7.72,13.08,17.45S153.64,69,146.58,69.1a9.46,9.46,0,0,1-4.08-.87,4.16,4.16,0,0,0-3.42,7.58,17.78,17.78,0,0,0,7.62,1.6c11.65-.18,21-12,20.73-26.28S157.56,25.31,145.91,25.49Z"/><path class="cls-5" d="M140,34.23c-5.37,1.64-9.5,6.82-10.6,12.26v.07l4.64-.07c1.22-6,4.86-11.62,11.29-12.8a8.29,8.29,0,0,0-3.86.19A10.48,10.48,0,0,0,140,34.23Z"/><path class="cls-8" d="M194.74,24.75c-10.29.15-18.75,9.1-20.43,21.07l8.39.1c1.37-7.44,6.27-12.77,12.16-12.86C201.93,33,207.8,40.78,208,50.51s-5.48,17.74-12.55,17.84a9.52,9.52,0,0,1-4.07-.86,4.16,4.16,0,1,0-3.42,7.58,17.74,17.74,0,0,0,7.62,1.59c11.65-.17,20.95-12,20.73-26.28S206.39,24.57,194.74,24.75Z"/><path class="cls-8" d="M243.46,24.88C233.21,25,224.77,33.61,223,45.1l8.4.11c1.41-7.12,6.28-12.22,12.15-12.31,7.06-.11,12.93,7.44,13.07,16.83S251.17,66.85,244.1,67a9.86,9.86,0,0,1-4.07-.83,4.23,4.23,0,0,0-5.5,2,4,4,0,0,0,2.08,5.3A18.29,18.29,0,0,0,244.23,75c11.64-.18,21-11.56,20.74-25.37S255.11,24.7,243.46,24.88Z"/><path class="cls-5" d="M188.66,33.52c-5.37,1.64-9.49,6.82-10.6,12.26v.07l4.64-.07c1.22-6,4.86-11.62,11.29-12.8a8.29,8.29,0,0,0-3.86.19A10.48,10.48,0,0,0,188.66,33.52Z"/><path class="cls-5" d="M237.35,33.25A16,16,0,0,0,226.74,45v.06l4.65-.06c1.22-5.78,4.85-11.15,11.29-12.28a8.7,8.7,0,0,0-3.86.18A12,12,0,0,0,237.35,33.25Z"/><path class="cls-14" d="M176.23,186.45l26.66-30.36c1.17-1.33-5,0-5.24,0-2.58.74-6,1.78-7.86,3.88l-26.67,30.36c-1.16,1.33,5,0,5.25,0,2.57-.75,6-1.79,7.86-3.89"/><path class="cls-14" d="M165.11,159.72l35,25.48c3.05,2.23,8.33-2.25,4.85-4.78l-35-25.48c-3.05-2.23-8.33,2.25-4.85,4.78"/><path class="cls-15" d="M174,161.65v0c-.18.19.38.42.45.5.09-.35-.38-.52-.46-.52"/><path class="cls-16" d="M176.26,156.65l-.28.67.09.25c.05-.31.12-.61.19-.92"/><path class="cls-17" d="M179.43,154.63a.81.81,0,0,0-.45.17l.84,0a.69.69,0,0,0-.39-.15"/><path class="cls-16" d="M179.82,154.78l-.84,0c-.45.32-.87,1-1.4,1.1l-.25-.11c0,.29.1.58.16.88.71-.67,1.6-1.8,2.37-1.86l0,0"/><path class="cls-16" d="M182.87,155.59a3.14,3.14,0,0,1-.5.37l.12.06a2,2,0,0,1,.42-.14.23.23,0,0,1,0-.29"/><path class="cls-16" d="M182.49,156h0c-.2.09-.1.14,0,.14s.2,0,0-.14"/><path class="cls-16" d="M184.4,155.15c-.16.16-.32.34-.47.5.18.19.69.09.55.31.54-.34.37-.53-.08-.81"/><path class="cls-17" d="M184.78,154.28l-.27.23.08.05c.06,0,.12-.07.19-.28"/><path class="cls-17" d="M184.2,154.58l-.06.08h.09l0-.07m.13-.27s-.07.09-.09.34h.1l.17-.14-.18-.2"/><path class="cls-16" d="M184.34,154.65h-.1v0h-.09c0,.08-.11.21-.2.34.13-.12.26-.24.4-.35"/><path class="cls-17" d="M183.15,154.33a1.64,1.64,0,0,0-.53.37h.32c0-.08.06-.19.21-.36"/><path class="cls-16" d="M182.94,154.69h-.32c-.22.25-.11.45.22.45a1.71,1.71,0,0,0,.69-.19c-.27-.08-.58-.09-.59-.27"/><path class="cls-17" d="M178.8,154.23h0m.23-.5-.23.5c.12-.26,1-.2.82-.46l-.59,0"/><path class="cls-17" d="M187.89,154.12l-.43.31.35.12h.3a2,2,0,0,1-.22-.43"/><path class="cls-16" d="M188.11,154.55h-.3c.2.08.4.19.44.38a.74.74,0,0,0-.14-.38"/><path class="cls-17" d="M188.55,153.67c-.64,0-.73.23-.66.45.21-.15.43-.31.66-.45"/><path class="cls-17" d="M184.85,153.11l-.22.06c-.32.35-.65.69-.93,1.05.36-.38.75-.75,1.15-1.11"/><path class="cls-16" d="M191.19,154.47l-.3.27-.37.52c.22-.26.44-.53.67-.79"/><path class="cls-16" d="M192.68,154.61c-.29.42.41.7.1,1a2.94,2.94,0,0,0,1.29-.73,1.17,1.17,0,0,1-.45.09,1.81,1.81,0,0,1-.94-.32"/><path class="cls-16" d="M194.73,154.4a3.59,3.59,0,0,0-.66.44,2,2,0,0,0,.66-.44"/><path class="cls-17" d="M190.05,153.65l-.28,0a1,1,0,0,0,.6.57l-.32-.59"/><path class="cls-17" d="M190,153.63v0h.62l-.63,0"/><polyline class="cls-17" points="189.77 153.67 189.7 153.67 189.77 153.67"/><path class="cls-17" d="M186.61,153.3v0m.24-1.26c-.24.46.28.67-.24,1.26.37-.4,1.18-.89.24-1.26"/><path class="cls-17" d="M188.5,152.88c0,.16.19.37,0,.56.26-.16.52-.34.79-.5l-.79-.06"/><polyline class="cls-17" points="189.65 152.72 189.28 152.94 189.58 152.97 189.65 152.72"/><path class="cls-17" d="M193.2,153.28c-.06.19-.25.52.19.52h0a1.92,1.92,0,0,1,1.13-.3,4.88,4.88,0,0,0-1.35-.22"/><polyline class="cls-17" points="191.79 153.55 191.77 153.63 191.84 153.59 191.79 153.55"/><polyline class="cls-17" points="198.66 153.69 198.63 153.79 198.71 153.81 198.66 153.69"/><path class="cls-17" d="M192.9,153.13a.71.71,0,0,0-.5.26,3,3,0,0,1,.8-.11l0-.12h-.05l-.23,0"/><path class="cls-17" d="M195.33,153.81c.13.17.38.41.5.41l.06,0a3.2,3.2,0,0,0-.56-.37"/><polyline class="cls-17" points="191.96 153.76 191.91 153.79 191.99 153.86 191.96 153.76"/><path class="cls-17" d="M192.4,153.39a2.31,2.31,0,0,0-.56.2l.12.17a2.22,2.22,0,0,0,.44-.37"/><path class="cls-17" d="M200.47,150.11a1,1,0,0,1-1,.62,1.34,1.34,0,0,1-.89-.36c-.85.35-.45,2.22.07,3.32.05-.24.07-.47.88-.7-.22-.35-1.66-.91-.94-1.34a2.15,2.15,0,0,1,.4,0c.63,0,.51.38.91.69-.35-.76,1.48-.81,1.43-1.85-.34.07-.68.13-1,.21,0-.16.39-.36.14-.55"/><path class="cls-17" d="M197.18,153.49l-.33,0a2.37,2.37,0,0,1,.94.73h.39a.77.77,0,0,0,.45-.47c-.49-.08-1-.15-1.57-.22l.12-.08"/><path class="cls-16" d="M198.18,154.26h-.39l.11.12a1.87,1.87,0,0,0,.28-.13"/><path class="cls-17" d="M195.31,153.68l.08-.23c.44.15.06.16-.08.23M196,152c-.91,0-.67.48-1.24.71h.33c.89,0-.69.36.3.73a3.2,3.2,0,0,1-.83.12,5.51,5.51,0,0,1,.78.31l0,0h0v-.08h0l0,.09h0l1.56-.23a2.68,2.68,0,0,0-.89-.11l-.57,0c.29-.6,1.09-.81.65-1.5h0"/><path class="cls-17" d="M187.54,150.62h0l.07.13c.08-.08.12-.14,0-.14"/><path class="cls-17" d="M189,152.17l.06.14-.06-.14m-1.47-1.41h0c-.21.19-.72.54,0,.74l.1-.1a3,3,0,0,1,1.36.77,3.75,3.75,0,0,0-.84-1.26c-.11.1-.17.34-.53.34h0c-.35-.14,0-.29-.08-.49"/><path class="cls-17" d="M192.55,151l0,.32a1.1,1.1,0,0,0-.24,0c-.47,0-.35.32-.43.53l1.3-.3-.67-.53"/><polyline class="cls-17" points="199.39 153.92 198.82 154.13 198.77 154.25 199.08 154.24 199.39 153.92"/><polyline class="cls-16" points="199.08 154.24 198.77 154.25 198.59 154.75 199.08 154.24"/><polyline class="cls-16" points="200.38 154.26 200.24 154.8 200.69 154.54 200.38 154.26"/><path class="cls-17" d="M156.31,186.33a1.57,1.57,0,0,0,.32.43l-.32-.43"/><polyline class="cls-16" points="158.27 189.9 158.2 190 158.48 189.93 158.27 189.9"/><path class="cls-15" d="M203.21,183.16c-.74.12-1.71.09-1.17.41l.58.24a1,1,0,0,1,.59-.65"/><path class="cls-17" d="M181.74,198.11a5.43,5.43,0,0,1-.56.41l.17.19.39-.6"/><path class="cls-17" d="M179.89,200.6a2.92,2.92,0,0,0,.81.44l-.81-.44"/><path class="cls-17" d="M154.76,169.18c0,.48.07.54.23.54h.21l.14,0-.58-.55"/><path class="cls-17" d="M209.73,161.68a2.75,2.75,0,0,0-.36,1.07c.36-.52.87-1,.36-1.07"/><path class="cls-17" d="M162.78,185.2l-.14,0a.51.51,0,0,0,.3.14l.14-.06a.58.58,0,0,0-.3-.11"/><path class="cls-17" d="M209.37,162.75a1,1,0,0,0-.05,1.3l.16-.24a2.82,2.82,0,0,1-.11-1.06"/><path class="cls-17" d="M202.1,141.84l.11.1c0-.07,0-.09-.11-.1"/><path class="cls-16" d="M212.51,155c0,.11.15.24.41.42a3.3,3.3,0,0,1-.41-.42"/><polyline class="cls-16" points="205.72 156.18 205.72 156.19 205.8 156.21 205.84 156.21 205.72 156.18"/><path class="cls-16" d="M205.49,153.38h0m0,0h0m.23-.22a.52.52,0,0,1-.23.22.38.38,0,0,0,.23-.22"/><polyline class="cls-17" points="212.9 167.88 212.81 167.91 212.81 167.94 212.9 167.88"/><path class="cls-16" d="M205.59,155.77a1.08,1.08,0,0,0,.24.32,1.26,1.26,0,0,0-.24-.32"/><path class="cls-16" d="M205.32,155.9c-.07.07-.07.14.19.16l-.19-.16"/><path class="cls-16" d="M206.16,156.35h0m-.33-.26v.11l.32.15a2.1,2.1,0,0,1-.33-.26"/><path class="cls-17" d="M171,146.24a1,1,0,0,0-.2.27h.1c.1-.2.12-.28.1-.28"/><polyline class="cls-17" points="201.33 194.38 201.27 194.4 201.31 194.44 201.33 194.38"/><path class="cls-17" d="M199.81,193.3c.22.78.44,1.6.62,2.4,0-1,.36-1.13.84-1.3l-1.46-1.1"/><path class="cls-17" d="M161.6,193.65c-.31-.11-1.09-.25-.95-.68a1.38,1.38,0,0,1,.42-.09c.38,0,.36.36.53.77m4.92-2-7.41.35a1.39,1.39,0,0,0,.3.16c.45.17,1,.41,1.45,1.62-.32-.21-.65-.41-1-.64-.32,1.28.64,1.63,1.13,3.06,0-.25-.19-1-.19-1.65s.1-.91.46-.91a.84.84,0,0,1,.32.07,1.51,1.51,0,0,0,1.19.91c-.45.52.19.82.87,1.3l-.6.68a1.68,1.68,0,0,0,.67.16c.39,0,.63-.2,1.1-.23.78.61.58,1.31.48,1.95a.94.94,0,0,0,.44.24c.17,0,.11-.28.08-.55s0-.56.26-.56a1.34,1.34,0,0,1,.56.19,4.79,4.79,0,0,0,.89.62q-.56-3.33-1-6.77M183,199.91a1.22,1.22,0,0,1-.62-.24.92.92,0,0,1,.29,0,1.55,1.55,0,0,1,.62.15.37.37,0,0,1-.29.13m21.37-10.06-5.11.24c0,.18,0,.37,0,.55-.66,0-1-.06-1.15-.49h-.2c-.41,1.1-.56.75-1,2.13l-.27-.5c-.33.23-.53,1.12-.93,1.12l-.15,0a1.13,1.13,0,0,0-.32-.05,10.75,10.75,0,0,0-2.86,1,10.05,10.05,0,0,1-3.77.93,5.3,5.3,0,0,1-.57,0c.28.47.24.6.07.6a1.41,1.41,0,0,1-.39-.09,2.07,2.07,0,0,0-.58-.15c-.19,0-.31.1-.27.44-.23-.35-.62-.5-.27-.91a2.15,2.15,0,0,1-1,.25l-.34,0h-.32a1.19,1.19,0,0,0-1.1.62c-.18-.37.23-.6.08-.81-.07.06-.24.24-.39.24l-.14-.08c-.15-.23.16-.34.35-.54-1.27.15-1.39,1.32-1.47,2.47a1.41,1.41,0,0,0-.76-.33c-.28,0-.52.19-.84.59-.24-.38-.62-.79.25-.87a15.08,15.08,0,0,0-1.65-.27,4,4,0,0,0-.58,0c-.42,0-.74.1-.81.41,0-.12-.21-.15-.37-.15a1.09,1.09,0,0,0-.43.08,16.08,16.08,0,0,0-2.2-.55l.25.23c-.22.3-.4.41-.56.41-.35,0-.65-.48-1.25-.57l.06-.09c-.76-.63-1-.71-1.2-.71h-.06c-.21,0-.46,0-1.15-.82l-.2.67c-.13.22-.26.31-.39.31s-.38-.22-.56-.5c.23,1.56.48,3.09.74,4.59.07.1.07.16,0,.21l.05.25.59-.22c.17.09,0,.27,0,.37.69,0,.39-.75,1.28-.75h.14a.31.31,0,0,1,.25-.16c.25,0,.56.37,1,.75a2.19,2.19,0,0,0,1.41.73,1.19,1.19,0,0,0,.59-.16c.26.32-.26.51-.23.88a11,11,0,0,0,1.71-.4,9.72,9.72,0,0,0,1.45-.68c.37.25.76.44,1.16.67-.85-.73.36-1.47,1.29-2.08a7.47,7.47,0,0,0-.69-.79,14.56,14.56,0,0,0,1.46-.46c.17.14,0,.46-.21.84a2.13,2.13,0,0,0,.27-.22c.53.32.28.85-.11,1.37-.19-.18-.37-.36-.55-.55a2.71,2.71,0,0,0-.7,1.66,1.13,1.13,0,0,1,.53-.22c-.11.14-.18.27-.13.37l0,0c.08,0,.23-.15.44-.35l.37,1,.09-.4c.7.18,1.42.4,2.15.55.73-.59,1.36-1.28,2.06-1.92a8.33,8.33,0,0,1,2.5-1.77c-.37.87.16,1.21.34,2.07a.7.7,0,0,0-.5-.2c-.69,0-1.47,1-2.5,1,.66,0,.58.42.44.61l2-1.24c.11.72.58.43,1.22.55-.78-1.28,1.37-1.28,2-2,.2.42.17,1-.93,1.2a1.06,1.06,0,0,0,.42.1c.45,0,.63-.44.81-.88s.36-.88.81-.88a.86.86,0,0,1,.3.05c-.24.1-.4.08-.41.34a2.21,2.21,0,0,1,1.45-.65c.23,0,.37.07.32.26l-.24.12a13.36,13.36,0,0,0,1.49-.62,14.31,14.31,0,0,0,1.52-1c.93-.72,1.5-1.59,1.27-2.14a8.35,8.35,0,0,1,.68,1.59,31.38,31.38,0,0,0,0-5c.44,1,2.86,2.2,2.07,3.57a2.06,2.06,0,0,0,1.39-1.22h-.06c-.39,0-1.43-.67-1.22-1,.41,0,.67,0,.86,0,.51,0,.52-.12,1.66-.26-.47,0-1.15-1.38-.7-1.79.1.23,1.1,1,1.13,1.33,0-.56,0-1.11,0-1.66m1.73-.08-1.36.06a2.33,2.33,0,0,0,1.16.39c-.14,0,0-.21.2-.45m-.07-7.21c-.13,1.57-1.93,3.08-3.78,3.23a.45.45,0,0,1-.38.19,1,1,0,0,1-.35-.07c.14.32-.15.79-.38,1.31l5.42-.25c0-.26-.06-.53-.1-.79s0-.21,0-.32c-.13-1.08-.27-2.18-.39-3.3m-.4-3.65a7.52,7.52,0,0,0-.24,1.09c0,.25-.07.5-.12.74a2.51,2.51,0,0,1,.67,1c-.11-.94-.21-1.89-.31-2.85M163.34,158l-4.57.13c-.13.22-.29.45-.48.76h.08c.52,0,1,.64.7,1.52a.51.51,0,0,1-.3.15l-.15,0-.1,0c-.08,0-.14.13-.29.73-.33-.43-.71-.95.09-1.33-.19-.13-.3-.45-.48-.59-.7.56-.72,1.77-.85,2.27a1.35,1.35,0,0,1,.32-.5c.09.76.22,1.5.37,2.23l-.22.09c-.18,0-.28-.21-.38-.43,0,.42.21.77.15,1.37-.5-.27-1.07-.34-1.14-1.22,0,.68.11,1.35.2,2-.22.07-.66.65-.89.65l-.1-.06c-.5,1,.69,2.76.15,4.08a.77.77,0,0,1,.25.53c-.22,1.27-1,2.39-.25,3.91l-1,.82c0,.26.14.35.25.35a.92.92,0,0,0,.41-.17,1,1,0,0,1,.44-.17c.21,0,.4.19.51.82s-.09.82-.41.82h-.34a.42.42,0,0,0-.39.16c.49.7,1.49,1.82.68,3.13-.19-.44,0-.77-.11-1.16l-.56,1c-.63-.86-.66-1.5-.89-1.5s-.24.11-.47.37c1,.07,1,1,1.06,2s.21,2.12,1.15,2.12h0c-.11.26-.22.52-.32.79,0-.22-.12-.24-.13-.45-.37.79,0,1,.51,1.29A1.74,1.74,0,0,1,157,185.9c.05.53,0,1-.19,1l-.21-.12a12.35,12.35,0,0,0,1,1.21c.08.22,0,.33-.08.33l-.17-.1a12.14,12.14,0,0,0,.65,1l6.31-.3.58-.66a1,1,0,0,1-.41-.86c-.13.31-.24.64-.56.64a.61.61,0,0,1-.29-.08c-.3-.28-.33-.93-.4-1.47s-.2-1-.86-1a.42.42,0,0,1,.21-.24c-.53-.37-1-1.5-1.72-1.78,1.09-.49.69-1.3.34-2.24s-.65-1.83.39-1.83h0l-.09-2.16.22.05a2.38,2.38,0,0,0-.85-2.36c.06-.12.13-.16.19-.16s.21.09.28.11c.5-2,.41-2.15-.55-3.89l.71-.12c-.37-.5,1.33-2.69.86-4.62a.48.48,0,0,1,.28.26,4.32,4.32,0,0,1,1-2.94c-.09-1.32-.18-2.62-.25-3.91-.16.2-.28.28-.38.28s-.29-.21-.41-.42-.24-.42-.42-.42l-.2.08a1.39,1.39,0,0,1,1.07-.94c.18,0,.27.12.17.42l-.18.07a.74.74,0,0,0,.3.16c0-.28,0-.57,0-.85m45.07-.3s0-.12,0-.28h0a1.55,1.55,0,0,1,0,.29m.69-1-1.4,0a.29.29,0,0,1-.26.12.85.85,0,0,1-.25,0c.17.17.36.31.51.48.05.55.22,1,.59,1.07,0,.15.26.2.43.25s.22,0,.11,0h-.12a5.2,5.2,0,0,1,.74.8l-.15,0c.1.51.46,1.08.64,1.82a2.85,2.85,0,0,1-.46,2.45,3.18,3.18,0,0,1,.05,1.94l-.57.12a3.25,3.25,0,0,1-.26,1.25c-.15.43-.27.82,0,1-.73.22-.94.86-1.07,1.61.08.9.15,1.82.23,2.73h0l0,.06c.08.89.16,1.78.25,2.68h0a1,1,0,0,1,0,.45q.32,3.38.71,6.77a11.93,11.93,0,0,1,.67,2.5c.68-.42.6.13,1.09-.84h.09c.44,0,.2.89,0,1.15.54-.67,1-1.4,1.51-2.1-.87-.34,0-2.18-.76-2.43l-.14,1.44-.21,1.43a2.32,2.32,0,0,1-1-1.63,3.3,3.3,0,0,1,.23-2.43l.15,0c.53,0,1.28,1,1.56,1.13-.18-.34.1-1.78.36-1.84l.19.89c.57-.66-.16-1.54.23-2.27l-1.9.45,1.1-2.09a7.74,7.74,0,0,1-2.82-1.14,17.51,17.51,0,0,1,2.18-1.81.75.75,0,0,1,.29-.06,1.75,1.75,0,0,1,1.06.61l.36.32a2.05,2.05,0,0,1,.16-.38l.79-1.56,0-.12s-.16.12-.5.46c-.08-.92.4-.87.57-1.9H214c-.69,0-1.82-1.35-2-2.15l.17,0a1.43,1.43,0,0,0,.57-.16c.3-1.71.82-2.62.89-4.27.21-.12.45-.68.75-.68l.21.09a1.7,1.7,0,0,1-.52-1c.16-.21.26-.28.33-.28s.14.21.18.42.09.42.27.42a.66.66,0,0,0,.36-.17c-.56-.07-.79-1.39-1.23-2.11-.82.31,0,1.72.28,2.48-1.2,0-2.39-1.33-3.14-2.67-.5-1.06.66-.65.46-.82a1.62,1.62,0,0,0-1.45-1.46c-.59-.12-1-.14-1.12-1l0-.14m2.21-.06h-.1a2.47,2.47,0,0,0,.18.81,4.56,4.56,0,0,0-.08-.82m.68,0-.51,0a1.42,1.42,0,0,1,.42.36,1.14,1.14,0,0,1,.25.71,1.66,1.66,0,0,0-.16-1.09m4.24-.12-1.89.06a3.41,3.41,0,0,1,.25.37c.23.35.42.7.76.7h.14a4.38,4.38,0,0,0-.41-.45h.14a1.22,1.22,0,0,0,1-.68m-12.38-3a8.38,8.38,0,0,1-2,.54,1.38,1.38,0,0,1-.63-.14,1.7,1.7,0,0,0,.09.29l2.59-.08,0-.61m4.67-.85c-.45,0-1.09,0-1,.39l.58.21c.14.78-1.31.2-.9.77l2.64-.07c-.48-.46-1-.89-1.33-1.3m-4.71-.23a.67.67,0,0,0-.38.26l.41.58,0-.84M163,151.11a4.44,4.44,0,0,1-1.28.58c-.49.71-.44.86-.24.86a1.47,1.47,0,0,0,.27,0,1.67,1.67,0,0,1,.29,0c.16,0,.27.07.21.33-1.08.06-.32,1-.58,1.85l-.58-.37c-.44.5-.57.81-.55,1l2.66-.07c-.07-1.42-.14-2.8-.2-4.14m0-.83a3.09,3.09,0,0,0-.63.69,1.59,1.59,0,0,1,.64-.42v-.27m44.43-5.85c-1.12.59,1.67.88.54,1.58a1.51,1.51,0,0,0-.73-1,6.11,6.11,0,0,0-.84-.47c0,1.68.1,3.45.16,5.3l.9.42a8.82,8.82,0,0,1,4.08,3.66l5.49-.16a10.67,10.67,0,0,1-.28-1.17,3.32,3.32,0,0,0-.52-1.22,1.69,1.69,0,0,0-1.31-.58c-.08-.48.54-.07.61-.44h-.22c-.6,0-1-.28-1.56-1.06l.19,0a30.28,30.28,0,0,1-2.66-2.24,21.6,21.6,0,0,0-2.95-2.35l-.09.7a2.44,2.44,0,0,1-.81-.92m-31,4.3-.28-.07c.15-.15.23-.21.27-.21s0,.13,0,.28m9.49-8.24c-2.17.84-1.07.6-2.35,1.94l-.41-.47a2.07,2.07,0,0,1-1.46,1.13c.8-.63-.85-.64,0-1.43a3,3,0,0,0-.8-.11,3.47,3.47,0,0,0-1.93.68,2,2,0,0,1-1.06.45,1.37,1.37,0,0,1-.84-.35c-.22.65,0,.82.4.82a2.18,2.18,0,0,0,.42-.05c.39-.07.8-.22.91-.22l0,.09c.6.33-.54,1.27-1.25,1.38l-.13,0a2.79,2.79,0,0,1-1-.4,3.19,3.19,0,0,0-1.43-.4,2.49,2.49,0,0,0-1,.23c.14-.07.12-.17.29-.24h0a1.4,1.4,0,0,0-.9.47,1.55,1.55,0,0,1-1,.47h-.17c0,1-1,.52-.6,1.56.46-.35.91-.73,1.4-1.06-.77.72-.87,2.28-2.53,2.6a2.43,2.43,0,0,1,.41-1.08h0c-.56,0-.64.67-1.21.67-.52-1,1.63-1.38,2.17-2.63h-.09c-.24,0-.48.23-.69.45s-.39.45-.53.45-.17-.13-.22-.47c.07.88-.36,1.07-.87,1.3s-1.1.47-1.26,1.35l-.34-.58a2.55,2.55,0,0,1-.57,1c0-.38,0-.74,0-1.12-.23.73-.91.9-1.53,1.13v.17c.11.05.17.18.24.3a.48.48,0,0,0,.45.33l.18,0a2.45,2.45,0,0,1-.8.94c.08,1.7.17,3.44.27,5.2a4.33,4.33,0,0,1,2.1-.58c.22-.2.45-.39.69-.58a47.52,47.52,0,0,1,4-2.74l-.88-.64c.32-.21.66-.39,1-.58.38,0,.75.48.06.87l.16,0c.53,0,.71-1.17.65-1.36a1.68,1.68,0,0,1,.4-.06c.41,0,.37.3.25.61s-.31.61-.21.61l.06,0,.51-.38-.18,0c.24-.63.09-1,1-1.44h.11a.5.5,0,0,1,.44.2c.07.1.11.2.2.2h0l.06,0a.54.54,0,0,0,.28-.16c.43-.17.89-.3,1.32-.45l-.82-.55c.44-.62,1.28-.44.35-1.07a1.78,1.78,0,0,0,1,.24,10.56,10.56,0,0,0,2.26-.38,13.82,13.82,0,0,1,2.54-.51.6.6,0,0,1,.29.05,3.89,3.89,0,0,1,2.84-.84.55.55,0,0,1,.39-1H187c-.25,1.85,1.73.79,2.53,2-.35-.78,2.74-.07,1.76-1.35.81.22,0,.72.59,1.21a3.14,3.14,0,0,1,1-.14c1.71,0,3.51,1.11,5.45,1.35.09-.23-.22-.69.37-.94.31.5.61,1,.89,1.51.33,0,.6-.63.92-.63.13,0,.28.11.45.43,0-.23-.13-.57.17-.57h0a22.68,22.68,0,0,0,2.6,1.32c-.07-2.16-.13-4.2-.17-6.1l-.15,0c-.2,0-.19.15-.18.31s0,.31-.18.31a.94.94,0,0,1-.28-.06l-.14-.48-.4.44a1.19,1.19,0,0,1-.73-1.22,1,1,0,0,0,.37.05h.29c-.67-.69-2.21-.51-2.62-.65.28.14.55.28.82.44-1.4-.15-2.89-.49-4.41-.71a16.43,16.43,0,0,0-2.3-.18,8.59,8.59,0,0,0-2.11.24l.19.33a4.81,4.81,0,0,1-1,.14,2.7,2.7,0,0,1-.92-.17,3.13,3.13,0,0,0-1.09-.18,6.71,6.71,0,0,0-.81.06l.08-.07a2.79,2.79,0,0,1-1.63.51c.54-.41-1.12-.64-.41-1.11"/><path class="cls-16" d="M170.56,199.32c-.1.16-.51.16-.38.4l.43-.15-.05-.25M168,191.56l-1.45.06q.48,3.44,1,6.77a6.18,6.18,0,0,0,2.77.51,1.24,1.24,0,0,1,.2.21c-.26-1.5-.51-3-.74-4.59l-.1-.15a8.11,8.11,0,0,0-.57-.83,1.09,1.09,0,0,0-.75-.5l.14.55h0c-.37,0-.48-.64-.51-1.33,0-.23,0-.47,0-.7m-4.34-32.2a3.27,3.27,0,0,1-.19.28c.07,1.29.16,2.59.25,3.91l.12-.2c.55-.92.89-1.66-.15-2.49q0-.75,0-1.5M164,158l-.64,0c0,.28,0,.57,0,.85h.11a.84.84,0,0,0,.6-.38,2.15,2.15,0,0,1-.12-.5m1.71-8.28a1.32,1.32,0,0,1-.71.18l-.4,0-.42,0a1.84,1.84,0,0,0-1.22.42v.27l.24-.05c.17,0,.26.09.19.34l-.4.27c.06,1.34.13,2.72.2,4.14l2.36-.07c.14-.09.27-.18.42-.26-.1-1.76-.19-3.5-.27-5.2m-.07-1.72a1.7,1.7,0,0,0-1.06.78c.5-.47.78-.63,1-.63l.1,0V148"/><path class="cls-16" d="M206.49,186.18c0,.26.07.53.1.79h.1l0-.09q-.1-.35-.18-.69m1.66-10.51a3.23,3.23,0,0,1-.6,1.07,9.52,9.52,0,0,0-1.14,1.7c-.18-.19,0-.48.26-.64a1.74,1.74,0,0,0-1,1.11c.1,1,.2,1.91.31,2.85a2.22,2.22,0,0,1,.09.8c.12,1.12.26,2.22.39,3.3a1.62,1.62,0,0,1,.33-1.11,2.38,2.38,0,0,0,1.57,1.11.64.64,0,0,0,.49-.21c-.22-.41-.79-1.35-1.28-2.35a6.48,6.48,0,0,1-.91-2.9l.56,0c0-.42,0-.85,0-1.26a14.15,14.15,0,0,1,1.4,2.73c.08.2.16.4.23.6q-.39-3.39-.71-6.77m-.29-3.14a11.79,11.79,0,0,0-.33,2.53l.58.15c-.09-.9-.17-1.79-.25-2.68m-.23-2.8,0,.22c-.06.41-.08.86-.12,1.26a3.27,3.27,0,0,1-.28,1l.66.23c-.08-.91-.15-1.83-.23-2.73m-3.71-17.34-.11,0,0,.84.15.21-.14,0,0,.61,1.46,0a2.07,2.07,0,0,1-.82-.37l.08-.85c0,.22.4.56.74.56l.13,0h-.07c-.25,0-.52-.35-.83-.66a1.06,1.06,0,0,0-.65-.34m-.42-9.89c0,1.9.1,3.94.17,6.1.94.41,1.89.79,2.83,1.21-.06-1.85-.12-3.62-.16-5.3l-.61-.29c-1-.45-2-.86-2.09-1.68l-.14,0"/><path class="cls-16" d="M165.54,155.18l-2.36.07-2.66.07c.06.58,1,.62,0,1.7-.15-.39-.29-.79-.43-1.21l-.3,1.07-.58-.55a3,3,0,0,1-.45,1.82l4.57-.13.64,0a3.2,3.2,0,0,1,1.56-2.82m44.31-1.24-2.64.07,0,0c-.42,0-.86.08-1.29.08a3.08,3.08,0,0,1-.61-.06l-1.46,0-2.59.08c.16.4.2-.19.56.76-.08-.39.08-.5.33-.5a2.92,2.92,0,0,1,.61.11,2.13,2.13,0,0,0,.54.12c.19,0,.3-.1.24-.42a1.5,1.5,0,0,0,.56.88,1.42,1.42,0,0,1,.66,1c.06-.18,0-.4.17-.4a.71.71,0,0,1,.36.19l.24-.17,0,0,0-.05h0a1.16,1.16,0,0,1-.13-.55,1,1,0,0,1,.63-.18,2.56,2.56,0,0,1,.47,0,4.58,4.58,0,0,0,.91.17h.09c.27.35-.32.17-.31.56l.75-.1c-.2.37-.1.89-.27,1.12l1.4,0c.19-.85,1.1-.92,1.4-1.37a1.7,1.7,0,0,1,.71,1.32h.1l0-.1.19.1.51,0a5.64,5.64,0,0,0-.87-1.37,11.46,11.46,0,0,0-1.27-1.34m7.12-.21-5.49.16a5.66,5.66,0,0,1,.46,1.23c0-.35,0-.48.15-.48s.27.14.42.31c-.1-.3.47-.4.69-.67a16.63,16.63,0,0,1,.38,2l.19,0a.75.75,0,0,1,.57.32l1.89-.06a3.85,3.85,0,0,0,.24-.4c.34-.65.63-1.46,1.24-1.77a.87.87,0,0,1-.74-.63"/><path class="cls-16" d="M168.28,190.36l-.33.07h0a3.25,3.25,0,0,1,.38.08l-.06-.15m29.82-.72c-.07.2-.12.37-.18.51h.2a1.62,1.62,0,0,1,0-.51m-33.73-.7-6.31.3c.15.23.31.45.47.67l-.05,0c.42.11,1.19.4,1.55.54,0,.19,0,.24,0,.24l-.15-.07-.17-.07-.08.06c.36.22.71.42,1.07.61a.35.35,0,0,1-.36.35,1.6,1.6,0,0,1-1.15-.81c-.32.75-.26,1,0,1.19l7.41-.35,1.45-.06a2.36,2.36,0,0,0-.1-1l0-.09-.71.14a.52.52,0,0,1-.25.07h-.09a19.93,19.93,0,0,1-2.92.33c-.77,0-1.21-.15-.82-.6l1.25-1.42m36.75-.16c-.12-.1-.25-.06-.12-.22l.12.22m5.57-1.82h-.1l-5.42.25a1.74,1.74,0,0,0-.17,1.33c-.42.26-.89.46-1,1l-.73-.51c0,.34,0,.69,0,1l5.11-.24c0-.16,0-.32,0-.48a.81.81,0,0,0,.38.46l1.36-.06a6.39,6.39,0,0,0,.94-1.12l-.75.32a1.74,1.74,0,0,0,.37-2"/><path class="cls-15" d="M167.92,189.92c-.13,0-.25.18-.39.36a1.3,1.3,0,0,1-.33.29l.71-.14h0l.33-.07c-.14-.33-.25-.44-.36-.44m-3-1.64-.58.66-1.25,1.42c-.39.45,0,.6.82.6a19.93,19.93,0,0,0,2.92-.33l-.24-.08c.16-.5,1-.75.5-1.31,0-.27-.62-.34-1.3-.55a2.5,2.5,0,0,1-.87-.41"/><path class="cls-15" d="M205.3,180.74a1.67,1.67,0,0,1-1,1.41.75.75,0,0,1-.48.76l0-.1-.09.12c-.17.08-.38.14-.57.23a1.51,1.51,0,0,0,.53-.16,4.21,4.21,0,0,0-.46,1.07l-.66-.26,0,.09c-.44.18.07.47.61.59a2.12,2.12,0,0,0,0,.71.93.93,0,0,0-.33-.07c-.27,0-.35.21-.45.42l-.12.24c1.85-.15,3.65-1.66,3.78-3.23a2.22,2.22,0,0,0-.09-.8,2.51,2.51,0,0,0-.67-1m-37.24-26.4a4.33,4.33,0,0,0-2.1.58c-.15.08-.28.17-.42.26A3.2,3.2,0,0,0,164,158a2.15,2.15,0,0,0,.12.5l.27-.35c.26-.37.5-.74.78-.74l.21.08a13.21,13.21,0,0,1,2.7-3.15"/><path class="cls-17" d="M204,192h0m.36-.45v0M157.31,188l.1.18-.1-.18m-1.22-25v0M162.31,151l-.07.09.07-.09m27.18-4.56.06.11-.06-.11m9.92-5.26.07,0-.07,0"/><path class="cls-17" d="M180.65,200.37h0c-.12.11-.12.24.11.38a.87.87,0,0,1-.11-.38"/><polyline class="cls-17" points="155.34 169.73 155.44 169.83 155.45 169.79 155.34 169.73"/><path class="cls-16" d="M202.94,155.41h0m.17-.37c0,.14,0,.34-.09.37l.6,0c-.31-.06-.38-.24-.51-.39"/><path class="cls-17" d="M197.21,150.23l-.14,0H197l-.14,0v.32h.05c.47,0,.8-.22.31-.39"/><path class="cls-17" d="M202.25,152.54h-.32l.09,0c-.19.45-.05.58.23.58a4.72,4.72,0,0,0,.65-.1c.07-.45-.24-.51-.65-.51"/><path class="cls-17" d="M201.32,152.46c0,.13,0,.17,0,.17s.27-.08.45-.09a1.57,1.57,0,0,1-.49-.08"/><path class="cls-16" d="M206.8,156.21c-.06,0-.15.1-.23.19s-.15.2-.18.2v0c-.15.15-.1.2,0,.2a1.54,1.54,0,0,0,.38-.07c.32-.1.59-.28.05-.43l0,0"/><polyline class="cls-17" points="202.92 151.1 202.95 151.84 203.39 151.36 202.92 151.1"/><path class="cls-17" d="M206.62,152.79V153l.18.06.08-.05-.27-.22"/><path class="cls-16" d="M206.17,152.47c0,.11-.15.13-.29.13h0c.29.13.57.32.77.4v-.21l-.45-.32"/><path class="cls-16" d="M205.31,152.45l-.14,0a3.54,3.54,0,0,0,.69.13,1.34,1.34,0,0,0-.55-.15"/><path class="cls-16" d="M204.17,151.21l.21.22c.2.08.4.14.59.23-.26-.16-.53-.3-.8-.45"/><path class="cls-17" d="M212.39,159.81l-.12.05c.11.3.22.6.31.91l.08,0c.2,0,.29-.26.16-.57-.16-.16-.28-.41-.43-.41"/><path class="cls-17" d="M213.54,156.61h-.44a2.27,2.27,0,0,1-.24.41l.81-.34-.13-.08"/><path class="cls-16" d="M213.14,156.35a.91.91,0,0,1,0,.27h.44l-.4-.26"/><path class="cls-17" d="M214.48,158.94c-.07,0-.11.12-.11.46.18,0,.53.72.67.72s.08-.15,0-.62c-.17-.06-.42-.56-.56-.56"/><polyline class="cls-17" points="210.36 173.75 211.69 174.37 211.75 174.13 210.36 173.75"/><path class="cls-16" d="M208.25,186.85v0h0v0m.78-.25a.78.78,0,0,0-.35.18l-.15.1.42,0,.2-.15-.12-.11"/><path class="cls-16" d="M209,186.86l-.42,0-.19.08-.09-.07h0c-.16.79-.53,1,.42,1.27,1-.78-.31-.77.29-1.3"/><path class="cls-16" d="M208.29,186.42a1,1,0,0,0,0,.43,2.74,2.74,0,0,0,0-.43"/><path class="cls-17" d="M213.57,157.67c0,.22,0,.43,0,.66.09-.19.16-.38.24-.57l-.27-.09"/><path class="cls-17" d="M215.07,158.22l-.77.52h.92c-.1-.12-.29-.33-.15-.52"/><path class="cls-17" d="M162,195.84l.22.83.2-.12c0-.28-.12-.42-.42-.71"/><path class="cls-17" d="M156.13,185.43l-.73.4,0,.24c.23-.22.46-.44.69-.64"/><path class="cls-17" d="M153.82,177a1.22,1.22,0,0,0,0,.27,1.22,1.22,0,0,0,0-.27m.11-.87h-.2a3.65,3.65,0,0,0,.09.86c.09-.55.7-.87.11-.87"/><polyline class="cls-12" points="245.95 169.57 210.94 177.85 227.79 145.79 333.81 62.14 351.96 85.92 245.95 169.57"/><polyline class="cls-18" points="245.95 169.58 249.25 157.79 236.95 158 240 145.67 227.8 145.79 333.81 62.14 351.96 85.92 245.95 169.58"/><path class="cls-6" d="M226.63,173.92l-8.19-10.73-5.17,10.11a2.32,2.32,0,0,0,2.62,3.31l10.74-2.69"/><path class="cls-19" d="M368.88,71.23a14.22,14.22,0,0,0-17.39-22.42l0,0-12.63,9.8,17.44,22.49,12.63-9.8,0,0"/><polyline class="cls-20" points="342.7 94.13 323.16 68.93 343.66 53.04 363.2 78.23 342.7 94.13"/><path class="cls-21" d="M363.4,75.52,362,76.64l1.24,1.59-1.13-1.65,1.33-1.06m9.85-18.32a14.24,14.24,0,0,1-4,13.72l.55-.43s5.62-5.48,3.48-13.29"/><path class="cls-22" d="M370.67,51.89s.73,11.87-13.25,18.19l-3.9-4.33L362,76.64l1.44-1.12,5.82-4.6a14.24,14.24,0,0,0,4-13.72,17.11,17.11,0,0,0-2.58-5.31"/><polyline class="cls-21" points="342.27 93.57 342.24 93.59 342.7 94.13 342.27 93.57"/><polyline class="cls-21" points="245.95 169.57 245.95 169.57 215.24 176.84 215.27 176.83 245.95 169.58 245.95 169.57"/><path class="cls-21" d="M249.25,157.79,237,158l-14.2,10.84,3.88,5.08-10.74,2.69a2.3,2.3,0,0,1-.58.07,2.18,2.18,0,0,1-1.05-.26.92.92,0,0,0,.78.44l.2,0L246,169.57l3.3-11.78"/><polyline class="cls-23" points="334.13 83.08 335.54 85.19 236.95 158 249.25 157.79 245.95 169.57 245.95 169.58 342.23 93.58 342.24 93.59 342.27 93.57 334.13 83.08"/><path class="cls-24" d="M222.75,168.84l-8.27,6.31a.92.92,0,0,0-.22,1.27,2.18,2.18,0,0,0,1.05.26,2.3,2.3,0,0,0,.58-.07l10.74-2.69-3.88-5.08"/><polyline class="cls-25" points="353.36 65.57 333.28 81.81 334.13 83.08 342.27 93.57 342.7 94.13 363.2 78.23 361.96 76.64 353.52 65.75 353.36 65.57"/><rect class="cls-20" x="348.46" y="57.21" width="0.65" height="23.72" transform="translate(31.86 230.25) rotate(-38.16)"/><rect class="cls-20" x="343.15" y="61.59" width="0.65" height="23.72" transform="translate(28.01 227.89) rotate(-38.16)"/><rect class="cls-20" x="337.83" y="66.19" width="0.65" height="23.72" transform="translate(24.03 225.59) rotate(-38.16)"/><rect class="cls-12" x="344.83" y="58.48" width="0.65" height="12.07" transform="translate(32.71 224.74) rotate(-37.74)"/><rect class="cls-12" x="339.52" y="62.86" width="0.65" height="12.07" transform="translate(28.91 222.4) rotate(-37.73)"/><rect class="cls-12" x="334.1" y="67.49" width="0.65" height="11.72" transform="translate(25.43 220.81) rotate(-37.88)"/><polygon class="cls-19" points="241.29 103.97 156.08 107 156.02 100.44 155.51 91 240.72 87.97 241.29 103.97"/></svg>