<svg id="Layer_1" data-name="Layer 1" xmlns="http://www.w3.org/2000/svg" xmlns:xlink="http://www.w3.org/1999/xlink" viewBox="0 0 399.97 400"><defs><style>.cls-1{fill:none;}.cls-2{fill:#be7380;}.cls-3{fill:#f5a996;}.cls-4{clip-path:url(#clip-path);}.cls-5{fill:#8f90a0;}.cls-6{fill:#6d9feb;}.cls-7{clip-path:url(#clip-path-2);}.cls-8{fill:#73cec6;}.cls-9{clip-path:url(#clip-path-3);}.cls-10{fill:#dddde5;}.cls-11{fill:#d49287;}.cls-12{fill:#7c7d90;}.cls-13{fill:#68697f;}.cls-14{fill:#5a5b72;}.cls-15{fill:#4e4f66;}.cls-16{fill:#b2b2bf;}.cls-17{fill:#9a9aac;}.cls-18{fill:#6b6c81;}.cls-19{fill:#85859a;}.cls-20{fill:#646578;}.cls-21{fill:#ab7670;}.cls-22{fill:#57576c;}.cls-23{fill:#6b6b81;}.cls-24{fill:#4b4b61;}.cls-25{fill:#5d5d73;}.cls-26{fill:#323352;}.cls-27{fill:#0d081b;}.cls-28{fill:#100c20;}.cls-29{fill:#030411;}.cls-30{fill:#cdcdd7;}.cls-31{fill:#995c6c;}.cls-32{fill:#c5887e;}.cls-33{fill:#5880c6;}.cls-34{fill:#5ca6a7;}.cls-35{fill:#54546b;}.cls-36{fill:#49495f;}.cls-37{fill:#3b3b50;}.cls-38{fill:#fff;}</style><clipPath id="clip-path"><path class="cls-1" d="M354.86,185.46c0,84.17-58.28,163.45-155.62,163.45-85.67,0-167.73-79.28-167.73-163.45S-35.69-13.31,199.74-13.31c85.67,0,155.12,114.59,155.12,198.77"/></clipPath><clipPath id="clip-path-2"><path class="cls-1" d="M326.13,129.48C329.05,195.32,276,251.06,207.68,254s-126.1-48.08-129-113.92S128.78,18.48,197.12,15.56s126.1,48.08,129,113.92"/></clipPath><clipPath id="clip-path-3"><polyline class="cls-1" points="261.76 336.15 261.75 336.15 261.75 336.48 261.76 336.48 261.76 336.15"/></clipPath></defs><title>SDCRT-1169_HelpHome</title><path class="cls-2" d="M48.19,155.48a156.2,156.2,0,1,1,115,188.65A156.21,156.21,0,0,1,48.19,155.48"/><path class="cls-3" d="M297,314.55A156.21,156.21,0,0,1,102.42,70.11L297,314.55"/><g class="cls-4"><path class="cls-5" d="M135.85,49.56,117,16.52a8.9,8.9,0,0,1,3.21-12.28,9.24,9.24,0,0,1,12.49,3.15l18.83,33"/><path class="cls-6" d="M78.66,140.06C75.74,74.22,128.78,18.48,197.12,15.56s126.1,48.08,129,113.92S276,251.06,207.68,254s-126.1-48.08-129-113.92"/><g class="cls-7"><path class="cls-8" d="M222.22,98.32l-2.38-6.11-4.29-1.56s-4.37,2.42-4,4.15,1.46,9.14,1.46,9.14a14.82,14.82,0,0,1,.47,4.7c-.14,2.74,4.4,4,5.43,3.5s3.64-1.15,4.37-2.42,2.7-4.6,1.87-5.31a9.37,9.37,0,0,1-2.22-2.64A26.21,26.21,0,0,1,222.22,98.32Z"/><path class="cls-8" d="M208.73,100.64s-4.88-1.29-5.81-.5-2.87.37-2.76,2.85.89,3.7,1.64,4.41,5.12,1.52,5.12,1.52l3.25-2.87Z"/><path class="cls-8" d="M218.67,120.32l-10.64-.8a3.67,3.67,0,0,0-2.94,1.16l-2.83,3.08a3.61,3.61,0,0,0-.92,1.91l-.29,1.87a3.7,3.7,0,0,0,.26,2l.89,2a3.63,3.63,0,0,0,3.64,2.17l2.26-.2a3.59,3.59,0,0,1,2,.39c.91.48,2.07,1.31,2,2.39a84.36,84.36,0,0,0,.52,11.66c.39,3,3.79,8.3,5.12,8.49s9,.11,10.24-.94,9.37-2.64,10.09-4.16l0-.05a3.63,3.63,0,0,1,5.8-.93c2.28,2.25,5.08,5,5.7,5.21,1.07.45,7.31-1.55,8.1-1.59s10.52-.45,11.12,1.27,7.65.17,7.46-4.3.53-5.74.14-8.71a5.93,5.93,0,0,1,0-1.1,3.63,3.63,0,0,1,4.13-3.34c2.79.4,7.1,1,8.14.93,1.32-.05,3.87,7,4.67,9.27a3.88,3.88,0,0,0,.78,1.29c1.67,1.78,6.71,7.2,7,7.81s6.28.56,9.55.53a3.63,3.63,0,0,0,3.1-1.8l4.46-7.6a3.66,3.66,0,0,0,.46-2.33c-.41-3-1.45-10.38-1.7-11.36s-.34-8.78-.38-12.7a3.62,3.62,0,0,1,1.93-3.24l19.74-10.49a3.52,3.52,0,0,1,.4-.18l4.14-1.59a3.62,3.62,0,0,0,1.95-5c-5.24-10.45-22-41-45.38-55.51a3.67,3.67,0,0,0-1.85-.53L281,45a3.61,3.61,0,0,0-3.34,2c-1.58,3.26-4.51,9.22-5.07,9.61l-6.87,4.67a3.6,3.6,0,0,1-1.22.53c-1.51.35-5.07,1.06-5.11.09s-2.5-2.33-4-3.15a3.61,3.61,0,0,0-2.39-.39c-3.23.59-11.79,2.17-12.62,2.61-1,.54-11.11,10.92-11.56,12.68a83.12,83.12,0,0,0-.44,9.4,3.63,3.63,0,0,0,3.76,3.68c5.36-.19,14.6-.56,15.14-.94a44.55,44.55,0,0,0,5.09-4c.84-.85,4.28-2.58,6.51-3.66a3.64,3.64,0,0,1,3.73.35l7.05,5.17a3.62,3.62,0,0,1,1.32,4l-1.58,5a3.76,3.76,0,0,1-.53,1.06l-4.34,5.91a3.62,3.62,0,0,1-2.05,1.37l-4.39,1.1a3.1,3.1,0,0,1-.68.1l-17.54,1a3.64,3.64,0,0,0-3.38,3c-.53,3-1.33,7.57-1.6,9.19-.39,2.31-9.32,4.14-10.7,4.41l-.35.05-4.51.41a3.1,3.1,0,0,1-.61,0"/><path class="cls-8" d="M186.41,69.26s-8.73-.62-9.75.17-5.47,7.45-5.47,7.45-1.37,4.78.07,7.46,9,6.82,9.48,5.81,3.1-1.38,6.41-4,4.07-3.4,6.12-4.74,7.28-2.3,7.71-4.3,1.15-3.78-1-5.93S186.41,69.26,186.41,69.26Z"/><path class="cls-8" d="M155.14,59.66,153.23,58s-6.45,3.26-7.19,4.29-4.42,1.43-6,1.5-4.9-3.52-6.33-6.2-1-4.18-4.41-4.29-2.13-.4-5.26.23-2.56,1.85-5.26.22A38.57,38.57,0,0,1,112,48.57a44.58,44.58,0,0,1-6.39-7.43s-40,31.55-36.84,84.63l7.13,18.1s4.45-.69,4-3.9-.79-5.94.21-7.22,8.22-4.83,8.22-4.83l5.19-1.71s8.18.14,10-.43,5.74-1.24,6.44-3.26,2.83-7.58,3.88-7.63,16.14,1.3,16.14,1.3,19.17,4.4,18.57-3,.67-8.73-1.12-13.38,4.91-14.14,4.91-14.14l9-12.07s1.07-5.52,0-6.46S154.79,57.69,155.14,59.66Z"/><path class="cls-8" d="M76.06,148.34s-1.82.58-1.91,4.56,1.85,47.67,72.58,91.64c0,0,1.69-3.55,1.37-4.78s.4-9-2.89-11.82-5.68-3.23-9.5-6.05-5.65-2.75-5.79-6,1.44-9,3.19-11.08,14.58-10.08,14.58-10.08,4.42-7.4,4.05-9.62,0-6.71-.39-8.93-2-14.59-4.13-15.74-8.56-14.81-11.93-13.67-13.76,4.82-16.89,5.45-12.81,2.54-16.23,2.68-16.38-1-16.38-1l-9.73-5.55"/><path class="cls-8" d="M247.47,171.22c-2.47-2.13-11.27-4.49-11.27-4.49l-11.62,5.47s2.59,4.86,0,6.71-1.14,4-9.12,2.38-7-4.17-14.27-.88-10,1.42-13.25,10.27-4.85,9.65-5.28,17.63S195,235.88,195.59,237.6s18.81,2.18,18.81,2.18,14.74-.38,15.77-.92,14-.1,12,2.22-6.64,10.73-6.64,10.73l12.67.45s49-6.32,69.5-31.57c0,0-11.91-12.92-13-14.61s-11-9.48-14.39-9.58-16.52-10-18.17-11.41-4.1-9.28-4.1-9.28l-20.49-4.59"/></g><path class="cls-5" d="M261.69,348c0,7-27.94,12.73-62.4,12.73s-62.4-5.7-62.4-12.73,27.94-5.57,62.4-5.57,62.4-1.46,62.4,5.57"/><polyline class="cls-5" points="261.75 348.9 137.13 348.9 137.13 334.07 261.75 334.07 261.75 348.9"/><g class="cls-9"><rect class="cls-10" x="261.75" y="336.15" height="0.33"/></g><path class="cls-11" d="M261.76,333.44h-.09c0,.11,0,.21,0,.32s0,.21,0,.31h.08v2.08h0v-2.71"/><path class="cls-12" d="M246.27,342.14a188.44,188.44,0,0,1-32,4v2.14a156.93,156.93,0,0,0,32-6.12m15.48-8.07h-.08c-.16,1.34-1.34,2.64-3.39,3.85,1.16-.46,2.32-.95,3.47-1.44v-2.41"/><path class="cls-13" d="M261.69,333.76c0,7-27.94,12.73-62.4,12.73s-62.4-5.7-62.4-12.73,27.94-9.94,62.4-9.94,62.4,2.91,62.4,9.94"/><path class="cls-14" d="M246.79,326.76v3a2.33,2.33,0,0,1,.35,1.16V331c-.21,3.44-9.29,6.45-22.77,8.09-1.66,2.47-5,4.66-9.59,6.4,13.56-.41,25.52-1.93,33.93-4.14,2.77-.9,5.51-1.87,8.18-2.91,2.93-1.47,4.55-3.1,4.55-4.82,0-3.17-5.56-5.42-14.64-6.89"/><path class="cls-5" d="M246.79,329.75v-11.9H153.9V330.1a2.16,2.16,0,0,0-.18.81c0,5.28,20.91,9.56,46.71,9.56s46.71-4.28,46.71-9.56a2.33,2.33,0,0,0-.35-1.16"/><path class="cls-5" d="M207,310.17h-7.71c-4.26,0-7.71-3.75-7.71-8.39V283.1c0-6.94,5.18.77,11.57.77S214.69,275,214.69,282v19.82c0,4.64-3.46,8.39-7.72,8.39"/><path class="cls-14" d="M224.36,339.12c-3.76.46-7.86.82-12.2,1.05,4.34-.23,8.44-.59,12.2-1.05"/><path class="cls-15" d="M247.13,331c-.21,3.44-9.29,6.44-22.77,8.09,13.48-1.64,22.56-4.65,22.77-8.09"/><path class="cls-12" d="M246.79,318.8c-2.84,4.73-22.51,8.39-46.36,8.39h-1.12v13.28h1.13c4.05,0,8-.1,11.72-.3,4.34-.23,8.44-.59,12.2-1.05,13.48-1.65,22.56-4.65,22.77-8.09v-.12a2.33,2.33,0,0,0-.35-1.16V318.8"/><path class="cls-13" d="M247.14,317.62c0,5.29-20.91,9.57-46.71,9.57s-46.71-4.28-46.71-9.57,20.91-9.56,46.71-9.56,46.71,4.28,46.71,9.56"/><path class="cls-14" d="M225.73,310.05c0,.12,0,.25,0,.37v6.72l-.06,0h0l-.11,0h0l-.11,0h0l-.06,0h0l0,0h0l0,0h-.07a66.22,66.22,0,0,1-14.43,2.53c-.56,2.83-4.54,5.37-10.69,7.24,26.34-.63,46.66-4.63,46.66-9.48,0-3.08-8.22-5.82-21-7.57"/><path class="cls-5" d="M225.74,317.14v-6.71c0-6.45-7-10.48-15.71-10.48H194.32c-8.68,0-15.71,4-15.71,10.48v7.1c5.46,1.65,13.72,2.69,23,2.69,10,0,18.76-1.21,24.17-3.08"/><path class="cls-16" d="M185.13,312.69c0-7.63,8.2-12.61,18.32-12.61h10a21.11,21.11,0,0,0-3.41-.28H194.32c-8.68,0-15.71,4.1-15.71,10.64v7.21a52.26,52.26,0,0,0,6.52,1.48v-6.44"/><path class="cls-11" d="M225.22,307.51a8.23,8.23,0,0,1,.48,2.07h0a8.23,8.23,0,0,0-.48-2.07"/><path class="cls-14" d="M225.7,309.58a3.59,3.59,0,0,1,0,.47,3.59,3.59,0,0,0,0-.47h0"/><path class="cls-15" d="M225.19,317.32h0m.09,0,0,0,0,0m.07,0,0,0,0,0m.07,0-.06,0,.06,0m.12,0-.11,0,.11,0m.13,0-.11,0,.11,0m.07,0-.06,0,.06,0m0-7.09c0,.12,0,.25,0,.38v0c0-.12,0-.25,0-.37"/><path class="cls-12" d="M203.47,300.08h0a30,30,0,0,0-3.59.22c6.82,1.18,11.86,5.5,11.86,11.68v7.61l-.66.24a65.92,65.92,0,0,0,14.12-2.5h.07l0,0h0l0,0h0l.06,0h0l.11,0h0l.11,0h0l.06,0v-6.71c0-.13,0-.26,0-.38a3.59,3.59,0,0,0,0-.47,8.23,8.23,0,0,0-.48-2.07c-1.35-3.55-5.16-6-10.07-7v3.88l-6-4.22h-5.68v-.05"/><path class="cls-17" d="M203.47,300H196a21.89,21.89,0,0,1,3.85.33,30,30,0,0,1,3.59-.22h0V300"/><polyline class="cls-12" points="203.47 296.12 203.47 299.8 208.68 299.8 203.47 296.12"/><polyline class="cls-17" points="208.68 299.8 203.47 299.8 203.47 299.97 208.93 299.97 208.68 299.8"/><polyline class="cls-18" points="209.09 300.08 203.47 300.08 203.47 300.13 209.15 300.13 209.09 300.08"/><polyline class="cls-19" points="208.93 299.97 203.47 299.97 203.47 300.08 209.09 300.08 208.93 299.97"/><path class="cls-20" d="M192.84,288.63l10.63,7.49v-7.41c-1.36,0-2.73.05-4.1.05q-3.28,0-6.53-.13"/><path class="cls-21" d="M215.16,288l-.47,0v12.33l.46.09V288"/><path class="cls-20" d="M214.69,300.13h-1.57c.53.06,1.06.14,1.57.23v-.23"/><path class="cls-20" d="M213.12,300.13h-.22c.77.08,1.52.19,2.25.34v0l-.46-.09c-.51-.09-1-.17-1.57-.23"/><path class="cls-22" d="M212.9,300.13h-3.75l6,4.22v-3.88c-.73-.15-1.48-.26-2.25-.34"/><path class="cls-22" d="M214.69,288c-3.71.36-7.45.58-11.22.68v7.41l5.21,3.68H210a21.11,21.11,0,0,1,3.41.28h-.71l.39.05h1.57V288"/><path class="cls-22" d="M212.73,300.08h-.26l.43.05h.22l-.39-.05"/><path class="cls-23" d="M210,299.8h-1.35l.25.17H210c.83,0,1.64,0,2.44.11h1a21.11,21.11,0,0,0-3.41-.28"/><path class="cls-24" d="M212.47,300.08h-3.38l.06.05h3.75l-.43-.05"/><path class="cls-25" d="M210,300h-1.1l.16.11h3.38c-.8-.07-1.61-.11-2.44-.11"/><path class="cls-26" d="M272.62,248.69a138,138,0,0,1-73.25,20.86c-75.65,0-137-60.25-137-134.58,0-46.86,24.38-88.11,61.35-112.21L113.12,6.63C70.78,34.15,42.84,81.35,42.84,135c0,84.94,70.08,153.79,156.53,153.79a157.83,157.83,0,0,0,83.88-23.93l-10.63-16.14"/><path class="cls-27" d="M267.58,251.09a136.9,136.9,0,0,1-14.38,7.21l.27.34a139.47,139.47,0,0,0,14.4-7.11l-.29-.44"/><path class="cls-28" d="M253.2,258.3a138.41,138.41,0,0,1-54.36,11.25h.53a138.6,138.6,0,0,0,54.1-10.91l-.27-.34"/><path class="cls-29" d="M61.44,139.54c-.06,1.56-.09,3.12-.09,4.7,0,74.32,61.32,134.57,137,134.57A138.09,138.09,0,0,0,271.57,258l6.26,9.5.49-.29-10.45-15.64a137.95,137.95,0,0,1-68.5,18h-1.05c-74.09,0-134.43-57.8-136.88-130"/><path class="cls-13" d="M275.6,230.44l21.14,31.65a8.88,8.88,0,0,1-2.32,12.47,9.25,9.25,0,0,1-12.69-2.28l-21.14-31.65,15-10.19"/><path class="cls-30" d="M277.26,39.58q3.57,2.61,6.94,5.46A120.63,120.63,0,0,1,307.61,71.6a111.21,111.21,0,0,0-30.35-32"/><path class="cls-31" d="M258,241.35a126.13,126.13,0,0,1-13.75,5.7l.09.1a128.1,128.1,0,0,0,13.66-5.8"/><path class="cls-32" d="M110.61,216.47a125.57,125.57,0,0,0,90.55,38.09c1.86,0,3.72,0,5.59-.12a128,128,0,0,0,37.58-7.29l-.09-.1A127.76,127.76,0,0,1,207.68,254c-1.87.08-3.74.12-5.59.12a125.6,125.6,0,0,1-89.43-36.93l-2-.7"/><path class="cls-33" d="M112.66,217.17a125.6,125.6,0,0,0,89.43,36.93c1.85,0,3.72,0,5.59-.12a127.76,127.76,0,0,0,36.56-6.93,126.13,126.13,0,0,0,13.75-5.7,126.87,126.87,0,0,1-21.12,8,73.08,73.08,0,0,1,5.26-8.28c1.51-1.75-5.45-2.43-9.42-2.43a8.79,8.79,0,0,0-2.54.21c-1,.54-15.77.92-15.77.92s-18.21-.47-18.81-2.18c-.39-1.11-5.83-9.67-9.52-17.74a156.73,156.73,0,0,1-27.53,3.69q-2.81.12-5.58.12a128.64,128.64,0,0,1-16.16-1c3.21,2.16,5.44,2.73,8.41,5.29,3.29,2.85,2.57,10.59,2.89,11.82a4.8,4.8,0,0,1-.34,2.22,124.06,124.06,0,0,1-35.1-24.81M323.8,115.75l-5.39,2.87a3.62,3.62,0,0,0-1.93,3.24c0,3.92.14,11.78.38,12.7s1.29,8.37,1.7,11.36a3.66,3.66,0,0,1-.46,2.33l-4.46,7.6a3.63,3.63,0,0,1-3.1,1.8h-1.79c-3.31,0-7.58-.08-7.76-.53-.25-.61-5.29-6-7-7.81a3.88,3.88,0,0,1-.78-1.29c-.66-1.93-2.56-7.13-3.93-8.77A113.74,113.74,0,0,1,266,175.38l1.93.43s2.46,7.86,4.1,9.28,14.74,11.31,18.17,11.41c2.61.08,8.95,4.62,12.32,7.52a115.9,115.9,0,0,0,22.65-74.08,129.13,129.13,0,0,0-1.4-14.19M244.11,23.1c10.21,3.73,22.22,13.54,32.11,26.78.51-1,1-2,1.4-2.86A3.64,3.64,0,0,1,280.89,45H281l3.24.06q-3.36-2.85-6.94-5.46A123.94,123.94,0,0,0,244.11,23.1"/><path class="cls-34" d="M280.89,45A3.64,3.64,0,0,0,277.62,47c-.4.83-.89,1.83-1.4,2.86C287.46,64.94,296,84.44,296,104.52a94.64,94.64,0,0,1-6.64,34.73c1.37,1.64,3.27,6.84,3.93,8.77a3.88,3.88,0,0,0,.78,1.29c1.67,1.78,6.71,7.2,7,7.81.18.45,4.45.53,7.76.53h1.79a3.63,3.63,0,0,0,3.1-1.8l4.46-7.6a3.66,3.66,0,0,0,.46-2.33c-.41-3-1.45-10.38-1.7-11.36s-.34-8.78-.38-12.7a3.62,3.62,0,0,1,1.93-3.24l5.39-2.87A116.69,116.69,0,0,0,307.61,71.6,120.63,120.63,0,0,0,284.2,45L281,45h-.07"/><path class="cls-34" d="M112.66,217.17A124.06,124.06,0,0,0,147.76,242a4.8,4.8,0,0,0,.34-2.22c-.32-1.23.4-9-2.89-11.82-3-2.56-5.2-3.13-8.41-5.29a127.11,127.11,0,0,1-24.14-5.48"/><path class="cls-34" d="M266,175.38c-20.44,21.77-49.3,37.6-80,44.48,3.69,8.07,9.13,16.63,9.52,17.74.6,1.71,18.81,2.18,18.81,2.18s14.74-.38,15.77-.92a8.79,8.79,0,0,1,2.54-.21c4,0,10.93.68,9.42,2.43a73.08,73.08,0,0,0-5.26,8.28,126.87,126.87,0,0,0,21.12-8c2.56-1.28,5.07-2.63,7.53-4.07l10.08-6.84.12.18A122.65,122.65,0,0,0,302.55,204c-3.37-2.9-9.71-7.44-12.32-7.52-3.43-.1-16.52-10-18.17-11.41s-4.1-9.28-4.1-9.28l-1.93-.43"/><polyline class="cls-35" points="275.6 230.44 275.6 230.44 275.46 230.81 275.72 230.62 275.6 230.44"/><path class="cls-36" d="M275.46,230.81q-4.8,3.47-9.94,6.47l-4.93,3.35L268,251.19l7.45-20.38"/><path class="cls-37" d="M275.6,230.44l-10.08,6.84q5.14-3,9.94-6.47l.14-.37"/><path class="cls-13" d="M120.06,2.23l-7.88,4.4C70.24,34.15,42.58,81.35,42.58,135c0,1.53,0,3.05.07,4.56a153.12,153.12,0,0,1,59-116.07,9.93,9.93,0,0,1,15.32,4v0h0a19.1,19.1,0,0,0,10.5-10.67,26.09,26.09,0,0,1,1.65-3.25l3.6-6.16C129-.72,120.06,2.23,120.06,2.23Z"/></g><path class="cls-38" d="M276.47,198.49s16.47-16-30.55-16.59c0,0-39.24-1.66-59,6.64,0,0-6.89,3.87,13.77,5.53,0,0,13.48.55,14.38.55s17.67,0,5.39,5.53c0,0-18.27,8.85,12.88,10l99.13-1.66s29.35-1.11-2.39-6.09Z"/><path class="cls-38" d="M271.37,52.47s-34.35-4.59-34.8,5.9c0,0,2.05,2,21.15,3,0,0,23,.65,20.24-3l-16.15-.32S281.83,55.42,271.37,52.47Z"/><path class="cls-38" d="M195.19,52.71l-46.63-.31s-25.15,5.55-6,8.32l42.95,6.47s11,3.39,1.69,6.16c0,0-12.12,8.32,15.49,5.86l34.82-2.47s13.8-1.85-6.45-6.78c0,0-20.09-.92-20.7-1.23s-3.22-4,2.14-6.78c0,0,13.2-4.93-3.22-7.09Z"/></svg>