<svg id="Layer_1" data-name="Layer 1" xmlns="http://www.w3.org/2000/svg" xmlns:xlink="http://www.w3.org/1999/xlink" viewBox="0 0 399.97 400"><defs><style>.cls-1{fill:none;}.cls-2{fill:#00a698;}.cls-3{fill:#73cec6;}.cls-4{clip-path:url(#clip-path);}.cls-5{fill:#008981;}.cls-6{fill:#c4a586;}.cls-7{fill:#9e806b;}.cls-8{fill:#54989a;}.cls-9{fill:#006564;}.cls-10{fill:#907a68;}.cls-11{fill:#755e53;}.cls-12{fill:#111236;}.cls-13{fill:#444560;}.cls-14{fill:#303150;}.cls-15{fill:#585972;}.cls-16{fill:#0c3e53;}.cls-17{fill:#2e4a61;}.cls-18{fill:#253a54;}.cls-19{fill:#1a1b3e;}.cls-20{fill:#4c4d68;}.cls-21{fill:#74758a;}.cls-22{fill:#606178;}.cls-23{fill:#50516b;}.cls-24{fill:#a88573;}.cls-25{fill:#e3c1a4;}.cls-26{fill:#fff;}.cls-27{fill:#ffb54d;}</style><clipPath id="clip-path"><path class="cls-1" d="M217.35-66.6c106.57,0,146,188.12,140.48,275.34A158.24,158.24,0,1,1,42,188.94C47.42,101.72,66.23-66.6,217.35-66.6"/></clipPath></defs><title>SDCRT-1169_HelpHome</title><path class="cls-2" d="M209.8,40.9A158.25,158.25,0,1,1,42,188.94,158.25,158.25,0,0,1,209.8,40.9"/><path class="cls-3" d="M95.19,317.5A158.25,158.25,0,1,1,304.6,80.19L95.19,317.5"/><g class="cls-4"><path class="cls-5" d="M273,276.24c-3,4.59-8.07,7.79-13.33,7.79l-44.87.48a11.36,11.36,0,0,1-2.4,2.65,10.46,10.46,0,0,1-2.86,1.92,30.14,30.14,0,0,1-5.69,2.36l-1.46.6h-.55L144.6,312.57c-1.1,5.47-14.24,14.23-14.24,14.23a62.37,62.37,0,0,1-2.56,13,157.57,157.57,0,0,0,62.19,17c2.51.16,5,.26,7.47.3l76-80.58-.44-.26"/><path class="cls-6" d="M115,195.43l-58,23s-9.86,0-16.43,26.27l-35,105.1-12,46,92-1.1s41.6-29.55,44.88-67.87c0,0,13.14-8.76,14.24-14.23l58-20.8s24.08-5.48,7.66-21.9l-39.41,12-25.18-50.35s33.94-12.05,36.13-24.09c0,0,4.38-21.89-27.37-10.95L138,197.62l-23-2.19"/><path class="cls-7" d="M170.81,281.24,140.89,290s-3.65,12.4-2.92,18.24c0,0-11-8.75-4.38-35.76l5.11,8.76,29.19-13.14,2.92,13.14"/><path class="cls-7" d="M133.59,255.69l-1.73-3.45,11.95-20.63-19.71,19.7L119,281.24l-.83,5c-5.91,26.36-34.93,54.1-34.93,54.1,17.23-8,27.81-22.94,34.3-37.8l8,21-2.19-24.08-1.82-7.6a135.56,135.56,0,0,0,6.19-32.22l3.66,9.16,2.92-5.84,23.36-8.76.73-7.29-24.82,8.75"/><path class="cls-8" d="M144.79,56.91l-2.25.63c-.59,1.25-2,77.73-3,140l2.64-.18.47-21.06,2.16-119.37"/><path class="cls-9" d="M203.84,291.44c-.76.22-1.22.33-1.22.33l-.79.28h.55l1.46-.6m8.55-4.28a18.57,18.57,0,0,1-2.86,1.92,10.46,10.46,0,0,0,2.86-1.92"/><path class="cls-10" d="M214.44,284.51l-56.86.6-13.57,4a14.74,14.74,0,0,0,9.46,3.48l48.36-.51.79-.28s.46-.11,1.22-.33l4.88-2.05a5.39,5.39,0,0,0,.81-.31,18.57,18.57,0,0,0,2.86-1.92,10.43,10.43,0,0,0,2.05-2.65m-73.68-23.93-2.26.85c-.15,9.54-.24,15.22-.24,15.22a16.38,16.38,0,0,0,.63,4.51l5.45-2.46a17.07,17.07,0,0,1-3.74-10.47l.16-7.65m.55-24.65-2.48,4.28c-.08,5-.15,9.57-.22,13.71l2.32-.82.38-17.17m.85-38.59-2.64.18c-.23,14.08-.45,27.42-.63,39l2.46-2.46.81-36.73"/><path class="cls-11" d="M144.34,278.7l-5.45,2.46a16,16,0,0,0,5.12,7.92l13.57-4h-1a16,16,0,0,1-12.29-6.42"/><path class="cls-11" d="M140.93,253.1l-2.32.82c0,2.71-.08,5.22-.11,7.51l2.26-.85.17-7.48m.42-19-2.46,2.46c0,1.25,0,2.47-.06,3.68l2.48-4.28,0-1.86"/><path class="cls-12" d="M259.66,284l-103,1.09c-8.36,0-16-8-16-16.89l4.72-214c0-8.91,6.85-16.2,15.21-16.2h99.13c8.37,0,15.21,7.29,15.21,16.2l1,212.83c0,8.91-7.83,17-16.2,17"/><path class="cls-13" d="M259.66,277l-103,1.09c-8.36,0-15.21-7.29-15.21-16.19l3.9-214.76c0-8.9,6.85-16.19,15.21-16.19h99.13c8.37,0,15.21,7.29,15.21,16.19V260.84c0,8.91-6.84,16.2-15.21,16.2"/><path class="cls-14" d="M259.66,277l-103,1.09c-8.36,0-15.21-7.29-15.21-16.19l3.9-214.76c0-8.9,6.85-16.19,15.21-16.19h99.13c8.37,0,15.21,7.29,15.21,16.19V260.84c0,8.91-6.84,16.2-15.21,16.2"/><path class="cls-15" d="M259.66,30.64H160.53C152,30.64,145,38.06,145,47.18l-.06,3.23.36-.13,0-3.1c0-8.9,6.85-16.19,15.21-16.19h99.13c8.37,0,15.21,7.29,15.21,16.19v7l0,5.27.32.18V47.18c0-9.12-7-16.54-15.56-16.54"/><path class="cls-16" d="M275.22,113.48l-.07.09.07,16.39V113.48m-.32-54h0l.32.17h0l-.32-.18M145.27,50.28l-.36.13h0l.36-.13h0"/><path class="cls-17" d="M274.9,59.46l.25,54.11.07-.09V59.63l-.32-.17M145.27,50.29l-.36.13-.12,6.49.36-.09.12-6.53"/><polyline class="cls-18" points="145.15 56.82 144.79 56.91 142.63 176.28 144.61 86.45 145.15 56.82"/><path class="cls-12" d="M274.87,54.18V260.84c0,8.91-6.84,16.2-15.21,16.2l-103,1.09c-8.36,0-15.21-7.29-15.21-16.19l3.19-175.49-2,89.83-1.56,85.66c0,9.12,7,16.54,15.57,16.54l103-1.09c8.58,0,15.55-7.42,15.55-16.55V130l-.07-16.39-.25-54.11h0l0-5.27"/><path class="cls-19" d="M156.63,277.78c-8.19,0-14.85-7.11-14.85-15.84l3.9-214.76c0-8.73,6.66-15.84,14.85-15.84h99.13c8.19,0,14.86,7.11,14.86,15.84V260.84c0,8.74-6.67,15.84-14.86,15.84l-103,1.1M259.66,31H160.53c-8.36,0-15.21,7.29-15.21,16.19l0,3.1h0l-.12,6.53-.54,29.63-3.19,175.49c0,8.9,6.85,16.19,15.21,16.19l103-1.09c8.37,0,15.21-7.29,15.21-16.2V47.18c0-8.9-6.84-16.19-15.21-16.19"/><polyline class="cls-20" points="158.14 57.41 158.14 57.41 154.94 239.38 264.16 238.39 158.14 57.41"/><polyline class="cls-21" points="263.24 56.92 158.14 57.41 264.16 238.39 263.24 56.92"/><path class="cls-12" d="M218.89,258.48c0,5.93-4.51,10.74-10.08,10.74s-10.09-4.81-10.09-10.74,4.51-10.74,10.09-10.74,10.08,4.81,10.08,10.74"/><path class="cls-22" d="M215.8,266.22h0M218,263a10.64,10.64,0,0,1-2.14,3.23A10.76,10.76,0,0,0,218,263m.91-4.5h0m0-.07h0m0-.07v0m0-.06v0m0-.07v0m0-.06h0m0-.06h0m-.7-3.54h0m-1.49-2.72a10.71,10.71,0,0,1,1.47,2.68,11,11,0,0,0-1.47-2.68m0-.05v0m0-.05h0m0,0h0m-.17-.21h0m0-.06h0m0,0h0m-3.41-2.66a10.21,10.21,0,0,1,3.39,2.63l0,0a10,10,0,0,0-3.37-2.61"/><path class="cls-23" d="M208.8,247.74a9.68,9.68,0,0,0-6.75,2.77l13.51,15.94.24-.23h0l0,0A10.64,10.64,0,0,0,218,263a11.24,11.24,0,0,0,.91-4.5h0v-.06h0v-.25h0v-.05h0a11.54,11.54,0,0,0-.7-3.53h0l0,0a10.71,10.71,0,0,0-1.47-2.68l0,0v0l0,0h0l0,0h0l-.17-.21h0l0-.05h0l0,0h0l0,0a10.21,10.21,0,0,0-3.39-2.63,9.57,9.57,0,0,0-4.12-.93"/><path class="cls-6" d="M164.3,194.33l-16.42,1.1-23-2.19L77.82,211.89c1.15.61,2.3,1.24,3.43,1.9l19.82,15.31a97.68,97.68,0,0,1,21.46,32.33c.27-3.27.44-6.64.48-10.12l24.87-20.85L174,221.22c8.38-4.44,16.66-10.19,17.71-15.94C191.67,205.28,196.05,183.39,164.3,194.33Z"/><path class="cls-24" d="M110.23,215.55s-17.51,17.52-36.49,33.58c0,0,19.71-22.63,8-26.28,0,0,11.68,4.38,14.6-8C96.37,214.82,92,226.5,110.23,215.55Z"/><path class="cls-25" d="M66.39,255.82l36.55-33.33s21.17-21.17,27.74-22.63l25.18-4.74,8.44-.79s16.37-5.42,20.75-1.77l-31.75,8s-28.46.73-39.41,17.52Z"/><path class="cls-26" d="M233.31,150.6c.74,8.5,7.39,6.28,7.39,14.78,0,6.28-12.93,14-29.55,14s-29.55-7.76-29.55-14c0-8.5,6.65-6.28,7.38-14.78,1.85-20.31,3.7-28.44,16.26-32.87,4.43-1.85,2.21-4.8,5.91-4.8s1.48,2.95,5.91,4.8C230,122.16,231.46,130.29,233.31,150.6Zm-22.16,25.12c14.4,0,24-6.28,24-7.75,0-2.59-7.39-7.39-24-7-16.62,0-24,5.17-24,7.39C187.14,169.44,196.74,175.72,211.15,175.72Zm-9.24-10.34a58,58,0,0,1,18.47,0c-2.21,4.43-5.17,6.65-9.23,6.65S203.76,169.81,201.91,165.38Zm46.18-19.21H240.7a29,29,0,0,0-8.5-20.68l5.17-5.18A37.28,37.28,0,0,1,248.09,146.17Zm-58-20.68a29,29,0,0,0-8.49,20.68h-7.39a38.85,38.85,0,0,1,10.71-26.23Z"/></g><path class="cls-27" d="M330.78,45.36c2.37-2.17,4.77-4.3,7.1-6.52,1-.91,1.68-1,2.56.07,1.08,1.29,2.24,2.53,3.41,3.74.8.84.85,1.52-.05,2.34-4.76,4.31-9.48,8.68-14.25,13-2.08,1.88-4.61,1.83-6.28,0s-1.44-4.43.64-6.35C326.19,49.53,328.49,47.45,330.78,45.36Z"/><path class="cls-27" d="M300.22,49a4.15,4.15,0,0,1-7-2.29c-1.15-4.87-2.18-9.77-3.25-14.65-.33-1.49-.61-3-1-4.47-.28-1.06,0-1.67,1.12-1.9,1.81-.38,3.62-.77,5.42-1.2a1.22,1.22,0,0,1,1.66,1.07c1.44,6.59,2.91,13.17,4.31,19.77A3.77,3.77,0,0,1,300.22,49Z"/><path class="cls-27" d="M329.92,81.93a4.07,4.07,0,0,1,4.32-1.1c6.23,2,12.45,4,18.68,5.9,1.09.34,1.52.9,1.12,2-.58,1.7-1.11,3.42-1.64,5.13a1.26,1.26,0,0,1-1.85,1c-6.32-2-12.67-4-19-6A4.08,4.08,0,0,1,329.92,81.93Z"/><path class="cls-27" d="M316,49.85a4.46,4.46,0,0,1-5.14.37,4.19,4.19,0,0,1-1.77-4.85c1-3.28,2.06-6.54,3.1-9.8.92-2.91,1.89-5.8,2.74-8.72.38-1.33,1-1.81,2.35-1.29,1.58.6,3.2,1.05,4.81,1.56a1.34,1.34,0,0,1,1,2c-2,6.21-3.95,12.45-6,18.66A12.7,12.7,0,0,1,316,49.85Z"/><path class="cls-27" d="M330.82,72.26c-2.54-2.72-1.36-6.49,2-7.29,4.66-1.1,9.35-2.07,14-3.1,1.7-.38,3.41-.71,5.09-1.14,1.07-.27,1.69.05,1.93,1.12.39,1.8.77,3.62,1.19,5.42.24,1-.22,1.49-1.19,1.7-6.44,1.4-12.86,2.83-19.29,4.24A4,4,0,0,1,330.82,72.26Z"/></svg>